<svg width="14" height="14" viewBox="0 0 14 14" fill="none" xmlns="http://www.w3.org/2000/svg">
<g clip-path="url(#clip0_59_1043)">
<path d="M6.7645 10.8964C6.52143 10.8964 6.27836 10.8964 6.03425 10.8964C5.10717 10.8964 4.59009 11.3676 4.48298 12.31C4.45064 12.5993 4.44438 12.893 4.42039 13.1834C4.35258 14.0008 4.28268 14.0392 3.55034 13.9833C3.06003 13.9449 2.87017 13.728 2.93276 13.2184C2.99014 12.7483 3.00996 12.2727 3.05586 11.8015C3.1414 10.9172 3.14453 10.9128 2.26405 10.8986C1.70802 10.8887 1.15094 10.8745 0.595948 10.9008C0.0336526 10.9271 -0.00390329 10.5699 0.000269581 10.1261C0.00444246 9.69979 -0.00807618 9.31736 0.571954 9.33708C1.26569 9.36119 1.96256 9.32393 2.65735 9.34146C3.13932 9.35461 3.33753 9.14093 3.36569 8.63686C3.41681 7.72734 3.52635 6.82111 3.58894 5.9116C3.67344 4.69306 3.66405 4.69196 2.54468 4.68539C2.12739 4.6832 1.71011 4.66347 1.29386 4.68539C0.732609 4.71498 0.69401 4.35665 0.699226 3.90737C0.704442 3.47453 0.707572 3.09428 1.27926 3.1151C1.83425 3.13592 2.39133 3.12277 2.94736 3.1151C3.79759 3.10414 3.80489 3.10086 3.90295 2.24942C3.96972 1.66974 4.01979 1.08786 4.06465 0.505991C4.11264 -0.121905 4.54036 0.0128787 4.91174 0.0205493C5.31651 0.0293158 5.5794 0.161908 5.52724 0.66817C5.46465 1.28511 5.45005 1.90752 5.38015 2.52337C5.33008 2.96169 5.49699 3.11948 5.89341 3.1162C6.97106 3.10853 8.0487 3.09976 9.12531 3.12058C9.56763 3.12935 9.76271 2.92772 9.7961 2.49049C9.84617 1.8363 9.90668 1.1821 9.95362 0.526811C10.0047 -0.178887 10.4898 0.0238367 10.8821 0.0271242C11.3307 0.0304116 11.4903 0.262722 11.435 0.727343C11.363 1.34319 11.3338 1.96341 11.2764 2.58144C11.241 2.95731 11.3964 3.1151 11.748 3.11181C12.304 3.10634 12.8611 3.13483 13.4161 3.11401C13.9825 3.09319 14.0003 3.46138 14.0013 3.8997C14.0024 4.34131 13.9804 4.70621 13.414 4.68539C12.8235 4.66347 12.232 4.69744 11.6415 4.68429C11.2597 4.67553 11.072 4.83551 11.0365 5.24425C10.9363 6.4058 10.8195 7.56626 10.7037 8.72672C10.662 9.13874 10.8122 9.34804 11.2211 9.33379C11.4298 9.32612 11.6384 9.33598 11.8471 9.33708C12.7748 9.34146 13.2349 9.60921 13.2272 10.1403C13.2203 10.6407 12.7408 10.892 11.7886 10.8942C11.5456 10.8942 11.3015 10.9052 11.0584 10.8953C10.6755 10.88 10.4919 11.0498 10.4679 11.4662C10.4293 12.1215 10.3281 12.7735 10.3 13.4288C10.2739 14.0293 9.92441 14.0173 9.51234 13.9822C9.10131 13.9471 8.7414 13.9044 8.8186 13.3061C8.89267 12.7275 8.9104 12.1412 8.98238 11.5627C9.03872 11.1024 8.90519 10.8767 8.4347 10.8931C7.8797 10.9128 7.32262 10.8975 6.76659 10.8975V10.8942L6.7645 10.8964ZM7.39774 4.68977C6.84274 4.68977 6.28671 4.69854 5.73171 4.68649C5.34885 4.67772 5.15481 4.85524 5.12247 5.25521C5.03067 6.41786 4.93678 7.58051 4.8335 8.74206C4.79595 9.16285 4.95869 9.34146 5.36033 9.33818C6.43693 9.32941 7.51249 9.32831 8.58909 9.34037C9.02307 9.34475 9.19937 9.1497 9.22963 8.69494C9.30578 7.56845 9.39237 6.44087 9.53007 5.32096C9.5958 4.7884 9.37777 4.68101 8.96048 4.68758C8.43991 4.69525 7.91935 4.68977 7.39774 4.69087V4.68977Z" fill="#F2F2F2"/>
</g>
<defs>
<clipPath id="clip0_59_1043">
<rect width="14" height="14" fill="white"/>
</clipPath>
</defs>
</svg>
