<svg width="16" height="14" viewBox="0 0 16 14" fill="none" xmlns="http://www.w3.org/2000/svg">
<g clip-path="url(#clip0_59_1107)">
<path d="M12.8004 5.38745C12.8106 5.28742 12.832 5.25339 12.8308 5.25236C12.8365 5.2503 12.8725 5.23483 12.9749 5.23483H12.9951C13.1065 5.23689 13.2179 5.23792 13.3293 5.23792C13.5127 5.23792 13.6972 5.23586 13.8806 5.2338C14.0606 5.23174 14.2407 5.22967 14.4196 5.22967C14.5985 5.22967 14.756 5.23174 14.9 5.23689C14.9225 5.23689 14.9439 5.23792 14.9653 5.23792C15.2848 5.23792 15.5369 5.15439 15.7158 4.99043C16.0027 4.72746 16.0016 4.35519 16.0004 4.08398C16.0004 3.73954 15.9971 2.93209 14.9675 2.93209C14.9462 2.93209 14.9248 2.93209 14.9023 2.93312C14.756 2.93828 14.5974 2.94034 14.4162 2.94034C14.235 2.94034 14.0404 2.93828 13.8525 2.93518C13.6601 2.93312 13.4688 2.93003 13.2764 2.93003C13.2224 2.93003 13.1684 2.93003 13.1076 2.93003C13.0862 2.93003 13.0694 2.93003 13.0547 2.92797C13.0547 2.91559 13.0547 2.90115 13.0581 2.88362C13.084 2.64541 13.1042 2.4041 13.1245 2.17104C13.1538 1.83383 13.183 1.48527 13.228 1.14909C13.2753 0.798472 13.2033 0.52004 13.0131 0.322043C12.8275 0.128172 12.5495 0.0291733 12.1872 0.0271108C12.1298 0.0271108 12.0612 0.0209234 11.9892 0.0147361C11.8981 0.00751743 11.8035 -0.000732422 11.7045 -0.000732422C11.1251 -0.000732422 10.7808 0.311731 10.7335 0.878908C10.7042 1.23468 10.6705 1.59046 10.6367 1.9452C10.612 2.20507 10.5872 2.46391 10.5647 2.72378C10.5467 2.93003 10.5197 2.93725 10.3194 2.93725H10.2981C9.81086 2.929 9.27977 2.92487 8.67555 2.92487C8.10847 2.92487 7.54138 2.92797 6.97429 2.93209H6.79201C6.74588 2.93312 6.71325 2.93106 6.69074 2.92797C6.69074 2.90734 6.69074 2.87743 6.69637 2.83619C6.738 2.5165 6.76163 2.19476 6.78526 1.88333C6.80439 1.62036 6.82464 1.34812 6.85615 1.08619C6.89328 0.769598 6.82014 0.513852 6.64011 0.327199C6.38582 0.0632039 6.01226 0.0260796 5.75347 0.0209234C5.70284 0.0209234 5.65108 0.0167985 5.59932 0.0137048C5.52394 0.00957989 5.4463 0.00442374 5.36416 0.00442374C4.57429 0.00442374 4.41001 0.538602 4.38188 0.856221C4.3245 1.51105 4.27162 2.01223 4.20973 2.48041C4.18948 2.63613 4.16472 2.82278 4.13885 2.91147C4.03533 2.92693 3.81704 2.929 3.62014 2.93106L3.37935 2.93415C3.10368 2.93725 2.82914 2.94137 2.55347 2.94137C2.2778 2.94137 2.05727 2.93828 1.84349 2.93106C1.82211 2.93106 1.80073 2.93003 1.77935 2.93003C0.767819 2.93003 0.756567 3.73748 0.752066 4.08398C0.747565 4.39025 0.765568 4.73778 1.03449 4.9863C1.21226 5.1513 1.46205 5.23483 1.77598 5.23483C1.80523 5.23483 1.83449 5.23483 1.86599 5.23277C2.00101 5.22658 2.14953 5.22349 2.31944 5.22349C2.47696 5.22349 2.63449 5.22555 2.79314 5.22864C2.92591 5.23071 3.05755 5.23277 3.19032 5.2338C3.47612 5.23483 3.76866 5.23689 3.89693 5.25958C3.91494 5.38539 3.89131 5.68032 3.86993 5.94432C3.84067 6.31865 3.80017 6.70124 3.76079 7.07042C3.71128 7.5417 3.65952 8.02947 3.62914 8.51415C3.61114 8.78949 3.57288 8.78949 3.35685 8.78949H3.32534C3.16557 8.78536 3.00692 8.78433 2.84714 8.78433C2.64574 8.78433 2.44433 8.78639 2.24405 8.78845C2.04602 8.79052 1.84799 8.79258 1.65108 8.79258C1.4373 8.79258 1.25164 8.79052 1.08174 8.78536C1.06036 8.78536 1.04011 8.78536 1.01986 8.78536C0.0105751 8.78639 0.00382409 9.57219 0.000448564 9.90734V9.93828C-0.00180179 10.1734 -0.00630249 10.5684 0.282868 10.8354C0.460646 11.0004 0.712685 11.084 1.02998 11.084C1.05699 11.084 1.08399 11.084 1.11325 11.0819C1.33378 11.0726 1.57457 11.0685 1.84911 11.0685C2.12366 11.0685 2.3982 11.0726 2.67162 11.0768L2.8854 11.0799C3.04517 11.0819 3.21958 11.085 3.33434 11.0933C3.32984 11.1902 3.31409 11.3325 3.29834 11.4758C3.27809 11.6584 3.26233 11.8419 3.24658 12.0255C3.22408 12.2926 3.2027 12.5452 3.16669 12.7989C3.11719 13.1516 3.18245 13.4238 3.36585 13.6301C3.55263 13.8394 3.84067 13.9549 4.24574 13.9828C4.40101 13.9931 4.52703 14.0003 4.63955 14.0003C5.55657 14.0003 5.61395 13.3919 5.66571 12.8546C5.67696 12.7401 5.68371 12.6257 5.69159 12.5102C5.70171 12.3483 5.71184 12.1956 5.73209 12.0451C5.78273 11.6522 5.84011 11.2077 5.91887 11.1448C6.00101 11.0788 6.48821 11.0788 6.95966 11.0788H7.29609V11.0819H7.74616C7.92619 11.0819 8.10734 11.0829 8.28737 11.084C8.46965 11.085 8.65305 11.086 8.83533 11.086C9.11437 11.086 9.34503 11.0829 9.56107 11.0768C9.57345 11.0768 9.5847 11.0768 9.59595 11.0768C9.64321 11.0768 9.67584 11.0799 9.69721 11.0829C9.70059 11.1108 9.70172 11.1603 9.68934 11.2418C9.65108 11.5161 9.62633 11.7924 9.60157 12.0595C9.5757 12.3431 9.55207 12.6112 9.51269 12.8804C9.46655 13.1928 9.52731 13.4476 9.69271 13.6352C9.95038 13.9291 10.3667 13.9601 10.6705 13.9828C10.7673 13.99 10.8708 13.9972 10.9743 13.9972C11.8317 13.9972 11.9892 13.4166 12.0061 13.0701C12.0218 12.7525 12.059 12.439 12.0983 12.1059C12.1321 11.8203 12.167 11.5253 12.1872 11.2294C12.1929 11.1438 12.2086 11.1036 12.2154 11.0902C12.2289 11.086 12.2615 11.0788 12.3256 11.0788C12.3358 11.0788 12.347 11.0788 12.3583 11.0788C12.446 11.0819 12.5327 11.0829 12.6204 11.0829C12.7161 11.0829 12.8117 11.0819 12.9073 11.0799C12.9929 11.0788 13.0784 11.0778 13.1639 11.0778C14.0291 11.0768 14.4241 11.0757 14.7132 10.9437C15.1521 10.7426 15.1588 10.3456 15.1644 9.962C15.1701 9.5856 15.1757 9.28757 14.9304 9.05864C14.6457 8.79258 14.2598 8.79052 13.228 8.78742C13.1538 8.78742 13.0795 8.78536 13.0052 8.78433C12.9152 8.7833 12.8241 8.78124 12.7341 8.78124C12.6688 8.78124 12.6024 8.78124 12.5372 8.78433H12.5102C12.4786 8.78433 12.4561 8.7833 12.4393 8.7802C12.437 8.75855 12.4359 8.72246 12.4415 8.6678C12.5653 7.59326 12.6924 6.48159 12.8016 5.38436L12.8004 5.38745ZM10.2834 5.36683C10.1304 6.45168 10.0359 7.54582 9.95713 8.56571C9.94475 8.72658 9.90875 8.7668 9.90875 8.7668C9.90875 8.7668 9.87049 8.79052 9.73209 8.79052H9.71972C9.14025 8.78433 8.53266 8.78227 7.91269 8.78227C7.35122 8.78227 6.79088 8.78433 6.22042 8.78845C6.16754 8.78845 6.13266 8.78433 6.11015 8.78124C6.1079 8.76061 6.10678 8.72761 6.1124 8.67811C6.21705 7.64482 6.31269 6.61771 6.42408 5.39364C6.43195 5.30289 6.45333 5.26267 6.46008 5.25649C6.46796 5.25133 6.51072 5.23586 6.60411 5.23586H6.62323C6.83927 5.23999 7.07105 5.24205 7.35347 5.24205C7.5335 5.24205 7.71353 5.24205 7.89356 5.23999C8.07246 5.23999 8.25136 5.23792 8.43139 5.23792H8.62042H9.41029C9.64771 5.23792 9.88512 5.23792 10.1225 5.2338H10.1529C10.2193 5.2338 10.2643 5.23689 10.2924 5.24102C10.2924 5.26783 10.2924 5.30805 10.2846 5.3658L10.2834 5.36683Z" fill="#F2F2F2"/>
</g>
<defs>
<clipPath id="clip0_59_1107">
<rect width="16" height="14" fill="white"/>
</clipPath>
</defs>
</svg>
