<svg width="13" height="11" viewBox="0 0 13 11" fill="none" xmlns="http://www.w3.org/2000/svg">
<g clip-path="url(#clip0_59_1076)">
<path d="M0 3.39275C0.0212584 2.18793 0.593388 1.08722 1.87999 0.427856C3.19616 -0.24752 4.49662 -0.090911 5.72869 0.677897C6.50693 1.16374 6.49677 1.16196 7.24913 0.692134C8.50985 -0.0953601 9.83619 -0.262647 11.1773 0.459C12.5249 1.18332 13.0638 2.36322 12.9935 3.81274C12.9344 5.04426 12.3752 6.09514 11.6228 7.05793C10.571 8.40512 9.23171 9.44711 7.76118 10.3334C6.28603 11.2223 6.70843 11.2152 5.26562 10.3485C3.74056 9.43109 2.35969 8.34551 1.28752 6.93603C0.52684 5.93497 0.00739424 4.84405 0 3.39275ZM6.4866 3.20411C6.2278 2.89 6.0411 2.65597 5.847 2.42818C5.53182 2.05801 5.16765 1.7448 4.71753 1.52768C3.04366 0.717049 1.3134 1.73145 1.28105 3.5369C1.26534 4.40537 1.59438 5.16261 2.07131 5.86646C3.10466 7.39162 4.56687 8.47008 6.13352 9.43554C6.36182 9.57613 6.57256 9.61617 6.81657 9.46579C8.51262 8.4158 10.1061 7.25992 11.1348 5.53366C11.5572 4.82536 11.8003 4.06901 11.7069 3.23881C11.5969 2.25644 10.9435 1.53302 9.94526 1.307C8.97846 1.08811 8.18912 1.44492 7.51347 2.06691C7.16317 2.38903 6.87295 2.77165 6.48567 3.20411H6.4866Z" fill="#626161"/>
</g>
<defs>
<clipPath id="clip0_59_1076">
<rect width="13" height="11" fill="white"/>
</clipPath>
</defs>
</svg>
