<svg width="48" height="47" viewBox="0 0 48 47" fill="none" xmlns="http://www.w3.org/2000/svg">
<path d="M23.9703 46.8403C18.5646 46.8403 13.1588 46.881 7.7493 46.8293C2.31338 46.7775 0.0424387 44.5003 0.023577 39.0921C-0.00660157 28.6193 -0.0103739 18.1466 0.0273494 7.67389C0.046211 2.39131 2.45295 0.0513081 7.91151 0.0291279C18.5985 -0.0115357 29.2855 -0.00783899 39.9725 0.0291279C45.4122 0.0476114 47.917 2.39501 47.9472 7.64062C48.0151 18.2353 48.0226 28.8338 47.9396 39.4285C47.9019 44.4819 45.416 46.7775 40.1875 46.8293C34.7818 46.8847 29.376 46.8403 23.9665 46.8403H23.9703ZM5.28974 23.2222L6.11965 23.5586C7.91528 22.0355 9.7939 20.6012 11.4726 18.9673C12.8608 17.6143 13.8227 17.6882 15.1808 19.056C19.9075 23.8247 24.7474 28.4826 29.542 33.1811C31.9412 35.5322 34.4121 37.813 36.7094 40.2528C38.109 41.7389 39.7499 42.0383 41.4852 41.4875C43.228 40.933 42.6886 39.2399 42.6961 37.9757C42.7376 28.3754 42.7338 18.7751 42.7112 9.17474C42.7037 5.27104 42.5905 5.16383 38.7729 5.15274C30.8586 5.13056 22.948 5.14535 15.0337 5.14535C12.5213 5.14535 10.0089 5.15644 7.49655 5.16383C6.17247 5.16753 5.29729 5.70725 5.29351 7.1046C5.27842 12.4759 5.28597 17.8472 5.28597 23.2185L5.28974 23.2222ZM29.8023 41.6724C23.9213 35.8907 18.3873 30.4492 12.808 24.9596C5.34255 30.1313 4.79557 31.122 5.25956 38.9442C5.27465 39.1882 5.2822 39.4359 5.2822 39.6798C5.2822 41.0772 6.08193 41.6687 7.41733 41.6687C14.8035 41.6761 22.1898 41.6687 29.8061 41.6687L29.8023 41.6724Z" fill="#AFAFAF"/>
<path d="M39.9998 15.8982C40.0341 20.188 36.4706 23.8758 32.1716 23.997C27.7507 24.1219 23.9509 20.3395 24.0005 15.8641C24.05 11.5288 27.6668 7.9849 32.0192 8.00005C36.3906 8.01519 39.9616 11.5553 39.9998 15.8982ZM32.1792 18.6167C33.6008 18.5145 34.7365 17.212 34.6451 15.7922C34.5498 14.3534 33.2997 13.2819 31.821 13.3765C30.3537 13.4712 29.2446 14.7169 29.3552 16.1519C29.4619 17.5528 30.7958 18.7189 32.1831 18.6167H32.1792Z" fill="#AFAFAF"/>
</svg>
