<svg width="72" height="72" viewBox="0 0 72 72" fill="none" xmlns="http://www.w3.org/2000/svg">
<g clip-path="url(#clip0_59_1119)">
<path d="M35.9542 71.9719C27.8454 71.9719 19.7367 72.0344 11.6222 71.9549C3.46818 71.8753 0.0617061 68.3764 0.0334131 60.0666C-0.0118557 43.975 -0.0175143 27.8835 0.0390717 11.792C0.0673647 3.67527 3.67755 0.0798122 11.8655 0.0457321C27.8964 -0.0167482 43.9272 -0.0110682 59.958 0.0457321C68.1177 0.0741322 71.875 3.68095 71.9202 11.7409C72.0221 28.0199 72.0334 44.3045 71.9089 60.5834C71.8523 68.348 68.1233 71.8753 60.2805 71.9549C52.1717 72.0401 44.063 71.9719 35.9485 71.9719H35.9542ZM7.93282 35.6822L9.17771 36.1991C11.8712 33.8589 14.6892 31.6551 17.2073 29.1445C19.2896 27.0656 20.7326 27.1792 22.7697 29.2808C29.8599 36.6081 37.1199 43.7649 44.3119 50.9842C47.9108 54.5967 51.6172 58.1013 55.0633 61.8501C57.1626 64.1335 59.6241 64.5935 62.2271 63.7472C64.8413 62.8952 64.0322 60.2938 64.0435 58.3512C64.1057 43.6002 64.1001 28.8491 64.0661 14.0981C64.0548 8.10001 63.885 7.93529 58.1585 7.91825C46.2868 7.88417 34.4207 7.90689 22.549 7.90689C18.7803 7.90689 15.0117 7.92393 11.2431 7.93529C9.25693 7.94097 7.94413 8.77025 7.93847 10.9173C7.91584 19.1704 7.92716 27.4235 7.92716 35.6765L7.93282 35.6822ZM44.7024 64.0312C35.8806 55.1477 27.5795 46.7867 19.2104 38.3518C8.01204 46.2982 7.19154 47.8204 7.88755 59.8394C7.91018 60.2142 7.9215 60.5948 7.9215 60.9697C7.9215 63.1167 9.12112 64.0255 11.1243 64.0255C22.2038 64.0369 33.2833 64.0255 44.7081 64.0255L44.7024 64.0312Z" fill="#16181C"/>
<path d="M59.8004 23.9299C59.8514 30.3654 54.5606 35.8977 48.1777 36.0795C41.6137 36.2669 35.9721 30.5926 36.0456 23.8788C36.1192 17.3752 41.4892 12.0587 47.9513 12.0814C54.4417 12.1041 59.7438 17.4149 59.8004 23.9299ZM48.189 28.0082C50.2996 27.8548 51.9859 25.9009 51.8501 23.7709C51.7086 21.6125 49.8526 20.005 47.6571 20.147C45.4785 20.289 43.8319 22.1578 43.996 24.3105C44.1544 26.4121 46.1349 28.1616 48.1946 28.0082H48.189Z" fill="#16181C"/>
</g>
<defs>
<clipPath id="clip0_59_1119">
<rect width="72" height="72" fill="white"/>
</clipPath>
</defs>
</svg>
