<svg width="15" height="13" viewBox="0 0 15 13" fill="none" xmlns="http://www.w3.org/2000/svg">
<g clip-path="url(#clip0_59_1138)">
<path d="M13.5355 5.20321C13.5355 6.55452 13.5355 7.89758 13.5355 9.23972C13.5355 9.91262 13.5516 10.5864 13.5307 11.2593C13.4965 12.3509 12.8832 12.9402 11.7488 12.9898C11.338 13.0082 10.9253 12.9944 10.5126 12.9944C8.23054 12.9944 5.9494 12.9981 3.66731 12.9935C2.01374 12.9898 1.46414 12.4491 1.45748 10.8242C1.45178 9.26359 1.45939 7.70296 1.45273 6.14325C1.45178 5.84123 1.50693 5.53094 1.37381 5.24085C1.05241 5.07836 0.793776 5.58877 0.497104 5.32989C0.315487 5.17108 0.207088 4.93239 0.0682609 4.72859C-0.065812 4.53214 0.00930681 4.38617 0.191874 4.26959C0.324045 4.18513 0.456216 4.10159 0.59124 4.01989C2.68601 2.75486 4.79029 1.50453 6.86889 0.214718C7.33767 -0.0762922 7.67809 -0.068948 8.14116 0.217472C10.2217 1.50453 12.3269 2.75486 14.4198 4.02264C15.1567 4.4688 15.1386 4.52847 14.6565 5.19678C14.2771 5.72189 14.0061 5.10773 13.5345 5.20321H13.5355ZM7.49932 11.7119C8.79726 11.7119 10.0962 11.722 11.3941 11.7083C12.1576 11.7 12.2156 11.6458 12.2194 10.9243C12.2309 8.87618 12.2147 6.82809 12.2318 4.78C12.2356 4.36598 12.0958 4.10251 11.7259 3.88678C10.4803 3.15971 9.24227 2.41795 8.02135 1.65416C7.64766 1.42007 7.36145 1.42283 6.98966 1.65416C5.76684 2.41703 4.52975 3.15971 3.28601 3.88953C2.92468 4.10159 2.75542 4.35129 2.75923 4.77358C2.77729 6.82167 2.75923 8.86976 2.77254 10.9178C2.77729 11.622 2.86287 11.6991 3.6055 11.7073C4.90344 11.7211 6.20138 11.711 7.50027 11.711L7.49932 11.7119Z" fill="#F2F2F2"/>
<path d="M7.52131 4.6066C9.01037 4.61302 10.1628 5.72474 10.1676 7.15959C10.1723 8.57976 8.99991 9.72728 7.53272 9.74105C6.03319 9.75482 4.80562 8.56691 4.82844 7.12471C4.85126 5.71464 6.0427 4.60017 7.52131 4.6066ZM7.55839 5.88631C6.81196 5.86244 6.19769 6.38846 6.153 7.08982C6.10641 7.8123 6.73684 8.45767 7.49373 8.46042C8.22495 8.46409 8.82495 7.90043 8.84207 7.1954C8.85918 6.47292 8.30768 5.90926 7.55934 5.88539L7.55839 5.88631Z" fill="#F2F2F2"/>
</g>
<defs>
<clipPath id="clip0_59_1138">
<rect width="15" height="13" fill="white"/>
</clipPath>
</defs>
</svg>
