<svg width="15" height="13" viewBox="0 0 15 13" fill="none" xmlns="http://www.w3.org/2000/svg">
<g clip-path="url(#clip0_59_1040)">
<path d="M13.849 4.02273C11.8382 2.75496 9.81733 1.50462 7.8193 0.217564C7.37458 -0.0688565 7.04766 -0.0762006 6.59746 0.21481C4.60034 1.50462 2.57947 2.75496 0.566827 4.01998C0.438069 4.10076 0.310224 4.1843 0.183292 4.26968C0.00796133 4.38627 -0.0641798 4.53315 0.0645785 4.72869C0.197903 4.93249 0.302005 5.17117 0.476422 5.32999C0.761334 5.58887 1.00972 5.07845 1.31837 5.24094C1.44622 5.53103 1.39234 5.84132 1.39417 6.14335C1.40056 7.70397 1.39234 9.26459 1.39873 10.8243C1.40513 12.4492 1.93294 12.9899 3.52096 12.9936C5.71259 12.9991 7.90331 12.9954 10.0949 12.9945C10.4903 12.9945 10.8867 13.0073 11.2821 12.9899C12.3715 12.9403 12.9605 12.35 12.9934 11.2594C13.0135 10.5865 12.9979 9.91363 12.9979 9.23981C12.9979 7.89675 12.9979 6.55462 12.9979 5.2033C13.4509 5.10783 13.7111 5.72198 14.0755 5.19687C14.5385 4.52856 14.5567 4.46889 13.8481 4.02273H13.849ZM7.19468 9.07089C6.12352 9.06539 5.23135 8.11524 5.2971 7.05034C5.36102 6.01666 6.23037 5.24094 7.28691 5.27582C8.3462 5.31071 9.12697 6.14151 9.10323 7.20641C9.07949 8.24468 8.23023 9.07548 7.19468 9.07089Z" fill="#F2F2F2"/>
</g>
<defs>
<clipPath id="clip0_59_1040">
<rect width="14.4054" height="13" fill="white"/>
</clipPath>
</defs>
</svg>
