<svg width="11" height="12" viewBox="0 0 11 12" fill="none" xmlns="http://www.w3.org/2000/svg">
<g clip-path="url(#clip0_59_1045)">
<path d="M5.44153 11.9973C3.84107 11.9973 2.24061 12.0053 0.640152 11.9937C-0.00711296 11.9892 -0.0416096 11.956 0.0246602 11.3281C0.134505 10.2845 0.381427 9.27316 0.911585 8.3505C1.9256 6.58579 3.47432 5.69717 5.52233 5.71687C7.57397 5.73658 9.09635 6.66641 10.0677 8.45351C10.5298 9.30451 10.7867 10.2209 10.8793 11.1785C10.9564 11.9793 10.9419 11.9919 10.153 11.9955C8.58254 12.0035 7.01203 11.9982 5.44244 11.9973H5.44153ZM9.42589 10.693C9.20075 8.26181 7.33884 6.94411 5.50054 6.95127C3.34541 6.95933 1.65962 8.49382 1.49712 10.693H9.42589Z" fill="#F2F2F2"/>
<path d="M8.00673 2.52972C8.01127 3.91103 6.88287 5.04958 5.49211 5.0666C4.07503 5.08362 2.88671 3.90386 2.9085 2.49926C2.93029 1.13498 4.11134 -0.0143221 5.47759 1.05552e-05C6.86653 0.015239 8.0031 1.1502 8.00673 2.52972ZM5.43673 1.26307C4.7577 1.2792 4.17125 1.87221 4.17489 2.54047C4.17852 3.2571 4.81035 3.84564 5.53115 3.80353C6.22743 3.76233 6.76304 3.17917 6.73762 2.49031C6.71129 1.80324 6.12213 1.24695 5.43673 1.26307Z" fill="#F2F2F2"/>
</g>
<defs>
<clipPath id="clip0_59_1045">
<rect width="10.9091" height="12" fill="white"/>
</clipPath>
</defs>
</svg>
