<svg width="12" height="13" viewBox="0 0 12 13" fill="none" xmlns="http://www.w3.org/2000/svg">
<g clip-path="url(#clip0_59_1112)">
<path d="M11.9661 12.1091C11.8643 11.0727 11.5817 10.079 11.0734 9.15705C10.0049 7.22103 8.33029 6.21371 6.07348 6.19236C3.82068 6.17101 2.11709 7.13369 1.00167 9.04545C0.418496 10.045 0.146881 11.1416 0.026052 12.2722C-0.0468447 12.9524 -0.00889848 12.9874 0.703093 12.9932C2.4636 13.0058 4.2241 12.9971 5.98461 12.9971C7.71216 12.9971 9.43972 13.0039 11.1663 12.9951C12.034 12.9903 12.05 12.9767 11.9651 12.1101L11.9661 12.1091Z" fill="#F2F2F2"/>
<path d="M6.04249 5.48882C7.57133 5.47039 8.81257 4.23696 8.80858 2.74054C8.80358 1.24704 7.55435 0.0165191 6.02552 2.16073e-05C4.52265 -0.0155054 3.22349 1.22957 3.20052 2.70755C3.17655 4.22919 4.4837 5.50726 6.04249 5.48882Z" fill="#F2F2F2"/>
</g>
<defs>
<clipPath id="clip0_59_1112">
<rect width="12" height="13" fill="white"/>
</clipPath>
</defs>
</svg>
