<svg width="12" height="12" viewBox="0 0 12 12" fill="none" xmlns="http://www.w3.org/2000/svg">
<g clip-path="url(#clip0_59_1064)">
<path d="M10.9828 4.06043C10.905 3.99971 10.8822 3.94795 10.8952 3.84617C10.9628 3.32541 10.9068 2.8194 10.6674 2.34433C10.2096 1.43409 9.22625 0.946579 8.15476 1.10417C8.05273 1.1192 8.0007 1.09549 7.94058 1.01742C7.47031 0.409339 6.86794 0.0276613 6.08405 0.00134867C5.23974 -0.026988 4.58766 0.355846 4.07547 1.00267C4.00899 1.08653 3.95552 1.13163 3.83961 1.10359C3.72428 1.07583 3.60086 1.08277 3.53004 1.07785C3.0297 1.07496 2.59671 1.18397 2.23772 1.39013C1.40093 1.87041 0.962164 2.81535 1.10842 3.84155C1.12374 3.94882 1.09859 4.00347 1.01564 4.06679C-0.252982 5.03371 -0.350968 6.72321 0.822266 7.75952C1.05003 7.96077 1.11391 8.13889 1.09252 8.43093C0.989334 9.84603 2.13829 11.0046 3.55374 10.9118C3.85464 10.8922 4.04396 10.9517 4.25179 11.1894C4.78219 11.7963 5.46896 12.0803 6.28638 11.9808C6.98066 11.8967 7.51164 11.5315 7.93336 10.9919C7.99579 10.9121 8.04637 10.8794 8.15708 10.8945C8.62649 10.9578 9.08751 10.9153 9.52773 10.7268C10.5059 10.3075 11.0539 9.28768 10.8966 8.16375C10.8805 8.04809 10.9134 7.99431 10.9975 7.9281C11.597 7.45649 11.9745 6.85564 11.9985 6.07725C12.0248 5.22686 11.6378 4.57223 10.9828 4.06101V4.06043Z" fill="#1D9BF0"/>
<path d="M5.09338 8.48022C5.05089 8.48167 5.03528 8.45362 5.01592 8.43425C4.3329 7.7507 3.65104 7.06599 2.96659 6.38417C2.91138 6.32924 2.93046 6.30119 2.9741 6.25839C3.1455 6.08982 3.31835 5.92269 3.48253 5.74718C3.54901 5.67634 3.58283 5.69687 3.64006 5.75441C4.08375 6.20143 4.53292 6.64296 4.97401 7.0923C5.05696 7.17673 5.09858 7.18107 5.18472 7.09433C6.23482 6.03719 7.29099 4.98556 8.34109 3.92814C8.42636 3.84226 8.46972 3.8411 8.55036 3.929C8.6998 4.0918 8.86051 4.24418 9.02122 4.39598C9.08076 4.45236 9.09637 4.48533 9.02786 4.55357C7.73757 5.8397 6.45016 7.12902 5.16188 8.41747C5.13847 8.4409 5.11332 8.46229 5.09367 8.48051L5.09338 8.48022Z" fill="#232323"/>
</g>
<defs>
<clipPath id="clip0_59_1064">
<rect width="12" height="12" fill="white"/>
</clipPath>
</defs>
</svg>
