<svg width="11" height="12" viewBox="0 0 11 12" fill="none" xmlns="http://www.w3.org/2000/svg">
<g clip-path="url(#clip0_59_1067)">
<path d="M10.8464 7.29681C10.6532 6.97747 10.4561 6.66084 10.2525 6.34875C10.0942 6.10505 10.102 5.87585 10.2586 5.63487C10.4735 5.3033 10.6819 4.9672 10.8859 4.62838C11.1056 4.26374 11.003 3.95799 10.6154 3.80126C10.2573 3.65631 9.90104 3.50548 9.53954 3.37094C9.26156 3.26767 9.1441 3.07199 9.13888 2.77076C9.13279 2.38619 9.11235 2.00163 9.08886 1.61796C9.06145 1.16726 8.81697 0.980185 8.40065 1.09071C8.04958 1.18402 7.69591 1.2719 7.35224 1.38967C7.02641 1.50155 6.79715 1.40597 6.59748 1.12876C6.3717 0.815305 6.13418 0.509552 5.88491 0.21603C5.62563 -0.0892699 5.3259 -0.0679804 5.07533 0.251814C4.82345 0.573421 4.56983 0.893668 4.32405 1.22026C4.17048 1.42409 3.98429 1.48298 3.74764 1.41367C3.37787 1.30542 3.00592 1.20576 2.63485 1.10113C2.18547 0.974749 1.93664 1.16454 1.91315 1.65103C1.894 2.05009 1.87182 2.44961 1.84963 2.84867C1.83528 3.10958 1.71347 3.27944 1.47029 3.36913C1.10183 3.50548 0.737278 3.65495 0.374033 3.80715C-0.0105274 3.96841 -0.100577 4.28322 0.12346 4.64152C0.329226 4.97037 0.523681 5.30692 0.739453 5.62853C0.913897 5.88944 0.898236 6.12725 0.732492 6.38091C0.532382 6.68621 0.344017 7.00012 0.149561 7.30949C-0.117978 7.73664 -0.0309735 8.02201 0.427106 8.20863C0.730752 8.33229 1.03222 8.4641 1.3424 8.56829C1.69085 8.68561 1.86834 8.9062 1.8666 9.29756C1.86529 9.63638 1.89879 9.97566 1.91184 10.3145C1.93142 10.8263 2.15328 11.0093 2.63267 10.8906C2.97808 10.805 3.32349 10.7158 3.66237 10.6071C3.97733 10.5056 4.20659 10.594 4.40017 10.8662C4.6029 11.1507 4.82519 11.4202 5.04053 11.6951C5.35766 12.1001 5.64565 12.101 5.96539 11.6951C6.19987 11.3975 6.43478 11.0999 6.65838 10.7942C6.81586 10.5786 7.01075 10.5201 7.25262 10.5876C7.4697 10.6479 7.68634 10.7099 7.90429 10.7665C8.12876 10.825 8.34758 10.911 8.54073 10.9264C8.88396 10.9337 9.0658 10.7529 9.08668 10.4046C9.11104 9.9983 9.12888 9.59109 9.14019 9.18387C9.14758 8.91118 9.25677 8.72954 9.50952 8.63442C9.85711 8.50397 10.199 8.35675 10.5453 8.22222C11.0269 8.03515 11.1222 7.7534 10.8455 7.29636L10.8464 7.29681Z" fill="#E7C12F"/>
<path d="M4.93645 8.18244C4.8973 8.1838 4.88337 8.15707 4.86554 8.1385C4.23954 7.48623 3.61441 6.83305 2.98711 6.18259C2.93665 6.13005 2.95405 6.10332 2.99407 6.06255C3.15111 5.90175 3.30946 5.74231 3.45998 5.57471C3.52088 5.50722 3.55177 5.52669 3.60441 5.5815C4.01115 6.00774 4.42268 6.429 4.82726 6.85796C4.90339 6.93859 4.94167 6.94267 5.02041 6.85978C5.98311 5.85102 6.95104 4.8477 7.91375 3.83894C7.99205 3.75695 8.03164 3.75605 8.10559 3.83984C8.24263 3.99521 8.3901 4.14061 8.53714 4.28556C8.59195 4.33947 8.60587 4.37072 8.54323 4.43595C7.3604 5.66304 6.18018 6.8933 4.99953 8.12265C4.97821 8.14484 4.95515 8.16568 4.93688 8.18289L4.93645 8.18244Z" fill="#232323"/>
<path d="M8.58327 4.35303C8.58631 4.37069 8.58109 4.38881 8.56413 4.41101C8.56413 4.41101 8.56413 4.41101 8.56413 4.41146C8.55847 4.41916 8.55151 4.42686 8.54325 4.43547C7.36042 5.66255 6.1802 6.89281 4.99955 8.12216C4.97823 8.14436 4.95517 8.1652 4.9369 8.18241C4.92733 8.18241 4.91907 8.1815 4.91167 8.17879C4.90123 8.17471 4.89297 8.16837 4.88557 8.16112C4.87861 8.15387 4.87208 8.14572 4.86556 8.13847C4.23956 7.4862 3.61443 6.83302 2.98713 6.18256C2.93667 6.13002 2.95407 6.10329 2.99409 6.06252C2.99626 6.06026 2.99844 6.05799 3.00061 6.05618C3.00061 6.05618 3.00018 6.05573 2.99974 6.05528L2.49512 6.57709C2.65303 6.74107 2.81051 6.9055 2.96842 7.06947C2.97321 7.07672 2.9793 7.08487 2.98756 7.09348C3.6153 7.74394 4.24 8.39712 4.86599 9.04939C4.88383 9.06796 4.89819 9.09468 4.9369 9.09333C4.95517 9.07611 4.97823 9.05528 4.99955 9.03308C6.1802 7.80373 7.36042 6.57392 8.54325 5.34638C8.55238 5.33687 8.55978 5.32781 8.56587 5.31966C8.72117 5.15795 8.87647 4.99624 9.03221 4.83498L8.58327 4.35303Z" fill="#BC8B28"/>
</g>
<defs>
<clipPath id="clip0_59_1067">
<rect width="11" height="12" fill="white"/>
</clipPath>
</defs>
</svg>
